<?xml version="1.0" encoding="UTF-8"?>
<svg viewBox="0 0 475.76 364.58" xmlns="http://www.w3.org/2000/svg">
 <g transform="matrix(.79299 0 0 .8011 597.22 -139.72)" fill="none" stroke="#38acec" stroke-width="15">
  <path d="m-234.48 277.15a61.249 61.249 0 1 1 -122.5 0 61.249 61.249 0 1 1 122.5 0z"/>
  <path d="m-532.73 265.7a61.249 61.249 0 1 1 -122.5 0 61.249 61.249 0 1 1 122.5 0z"/>
  <path d="m-663.36 236.68s-21.954-29.484-37.554 3.1055c-13.924 29.088-11.663 88.888-11.663 88.888s10.602-39.959 22.907-62.957c12.304-22.998 26.311-29.036 26.311-29.036z" stroke-miterlimit="4.4"/>
  <path d="m-652.04 242.05a7.4823 14.764 0 1 1 -14.965 -5.5729 7.4823 14.764 0 1 1 14.965 5.5729z"/>
  <g transform="matrix(-1 0 0 1 -910.15 129.41)">
   <path d="m-385.56 107.27s-21.954-29.484-37.554 3.1055c-13.924 29.088-11.663 88.888-11.663 88.888s10.602-39.959 22.907-62.957c12.304-22.998 26.311-29.036 26.311-29.036z" stroke-miterlimit="4.4"/>
   <path d="m-374.23 112.64a7.4823 14.764 0 1 1 -14.965 -5.5729 7.4823 14.764 0 1 1 14.965 5.5729z"/>
  </g>
  <path d="m-505.03 534.75h-177.89l44.473-102.09 44.473-102.09 44.473 102.09 44.473 102.09z"/>
  <path d="m-623.85 534.13v40.017" fill-rule="evenodd"/>
  <path d="m-615.79 585.68a23.594 13.081 0 1 1 -47.188 0 23.594 13.081 0 1 1 47.188 0z"/>
  <g transform="matrix(-1 0 0 1 -977.97 -10.97)">
   <path d="m-413.86 544.68v40.017" fill-rule="evenodd"/>
   <path d="m-405.8 596.23a23.594 13.081 0 1 1 -47.188 0 23.594 13.081 0 1 1 47.188 0z"/>
  </g>
  <path d="m-627.2 407l-65.847-23.2" fill-rule="evenodd"/>
  <path d="m-717.36 379.24"/>
  <g transform="matrix(-1 0 0 1 -1188 0)">
   <path d="m-627.2 407l-65.847-23.2" fill-rule="evenodd"/>
   <path d="m-717.36 379.24"/>
  </g>
  <path d="m-297.42 407.46l-65.847-23.2" fill-rule="evenodd"/>
  <path d="m-387.57 379.7"/>
  <path d="m-294.05 407.46l65.847-23.2" fill-rule="evenodd"/>
  <g fill-rule="evenodd">
   <path d="m-295.73 338.6v117.53"/>
   <g transform="matrix(.81139 0 0 1 -156.45 -14.538)">
    <path d="m-171.86 471.58h63.078v77.704h-53.022l-10.517-39.251"/>
    <path d="m-171.47 471.58h-63.078v77.704h53.022l10.517-39.251"/>
   </g>
  </g>
  <path d="m-325.6 534.84v40.017" fill-rule="evenodd"/>
  <path d="m-317.55 586.38a23.594 13.081 0 1 1 -47.188 0 23.594 13.081 0 1 1 47.188 0z"/>
  <g transform="matrix(-1 0 0 1 -977.97 -10.97)">
   <path d="m-712.1 545.38v40.017" fill-rule="evenodd"/>
   <path d="m-704.05 596.93a23.594 13.081 0 1 1 -47.188 0 23.594 13.081 0 1 1 47.188 0z"/>
  </g>
  <path d="m-351.95 249.72l175.52 31.996"/>
 </g>
</svg>
