<?xml version="1.0" encoding="UTF-8" standalone="no"?>
<svg
   viewBox="0 0 128 128"
   version="1.1"
   id="svg231"
   sodipodi:docname="logo.svg"
   inkscape:version="1.1.2 (b8e25be833, 2022-02-05)"
   xmlns:inkscape="http://www.inkscape.org/namespaces/inkscape"
   xmlns:sodipodi="http://sodipodi.sourceforge.net/DTD/sodipodi-0.dtd"
   xmlns:xlink="http://www.w3.org/1999/xlink"
   xmlns="http://www.w3.org/2000/svg"
   xmlns:svg="http://www.w3.org/2000/svg">
  <sodipodi:namedview
     id="namedview233"
     pagecolor="#ffffff"
     bordercolor="#666666"
     borderopacity="1.0"
     inkscape:pageshadow="2"
     inkscape:pageopacity="0.0"
     inkscape:pagecheckerboard="0"
     showgrid="false"
     showguides="true"
     inkscape:guide-bbox="true"
     inkscape:zoom="6.3125"
     inkscape:cx="43.643564"
     inkscape:cy="64"
     inkscape:window-width="1920"
     inkscape:window-height="1017"
     inkscape:window-x="-8"
     inkscape:window-y="-8"
     inkscape:window-maximized="1"
     inkscape:current-layer="svg231">
    <sodipodi:guide
       position="64.633663,89.346535"
       orientation="1,0"
       id="guide20275" />
  </sodipodi:namedview>
  <defs
     id="defs165">
    <inkscape:path-effect
       effect="bspline"
       id="path-effect19938"
       is_visible="true"
       lpeversion="1"
       weight="33.333333"
       steps="2"
       helper_size="0"
       apply_no_weight="true"
       apply_with_weight="true"
       only_selected="false" />
    <inkscape:path-effect
       effect="bspline"
       id="path-effect19934"
       is_visible="true"
       lpeversion="1"
       weight="33.333333"
       steps="2"
       helper_size="0"
       apply_no_weight="true"
       apply_with_weight="true"
       only_selected="false" />
    <inkscape:path-effect
       effect="bspline"
       id="path-effect19930"
       is_visible="true"
       lpeversion="1"
       weight="33.333333"
       steps="2"
       helper_size="0"
       apply_no_weight="true"
       apply_with_weight="true"
       only_selected="false" />
    <inkscape:path-effect
       effect="bspline"
       id="path-effect19926"
       is_visible="true"
       lpeversion="1"
       weight="33.333333"
       steps="2"
       helper_size="0"
       apply_no_weight="true"
       apply_with_weight="true"
       only_selected="false" />
    <inkscape:path-effect
       effect="bspline"
       id="path-effect14522"
       is_visible="true"
       lpeversion="1"
       weight="33.333333"
       steps="2"
       helper_size="0"
       apply_no_weight="true"
       apply_with_weight="true"
       only_selected="false" />
    <inkscape:path-effect
       effect="bspline"
       id="path-effect14325"
       is_visible="true"
       lpeversion="1"
       weight="33.333333"
       steps="2"
       helper_size="0"
       apply_no_weight="true"
       apply_with_weight="true"
       only_selected="false" />
    <inkscape:path-effect
       effect="bspline"
       id="path-effect14048"
       is_visible="true"
       lpeversion="1"
       weight="33.333333"
       steps="2"
       helper_size="0"
       apply_no_weight="true"
       apply_with_weight="true"
       only_selected="false" />
    <inkscape:path-effect
       effect="bspline"
       id="path-effect14044"
       is_visible="true"
       lpeversion="1"
       weight="33.333333"
       steps="2"
       helper_size="0"
       apply_no_weight="true"
       apply_with_weight="true"
       only_selected="false" />
    <inkscape:path-effect
       effect="bspline"
       id="path-effect14007"
       is_visible="true"
       lpeversion="1"
       weight="33.333333"
       steps="2"
       helper_size="0"
       apply_no_weight="true"
       apply_with_weight="true"
       only_selected="false" />
    <inkscape:path-effect
       effect="bspline"
       id="path-effect13970"
       is_visible="true"
       lpeversion="1"
       weight="33.333333"
       steps="2"
       helper_size="0"
       apply_no_weight="true"
       apply_with_weight="true"
       only_selected="false" />
    <inkscape:path-effect
       effect="spiro"
       id="path-effect13933"
       is_visible="true"
       lpeversion="1" />
    <inkscape:path-effect
       effect="simplify"
       id="path-effect13931"
       is_visible="true"
       lpeversion="1"
       steps="1"
       threshold="9.90099e-05"
       smooth_angles="360"
       helper_size="0"
       simplify_individual_paths="false"
       simplify_just_coalesce="false" />
    <linearGradient
       id="b">
      <stop
         stop-color="#a3bcda"
         offset="0"
         id="stop122" />
      <stop
         stop-color="#bdc6da"
         stop-opacity="0"
         offset="1"
         id="stop124" />
    </linearGradient>
    <linearGradient
       id="a">
      <stop
         stop-color="#fff"
         offset="0"
         id="stop127" />
      <stop
         stop-color="#fff"
         stop-opacity="0"
         offset="1"
         id="stop129" />
    </linearGradient>
    <linearGradient
       id="d">
      <stop
         offset="0"
         id="stop132" />
      <stop
         stop-color="#fff"
         offset="1"
         id="stop134" />
    </linearGradient>
    <linearGradient
       id="u"
       x1="63.672"
       x2="96.185"
       gradientUnits="userSpaceOnUse"
       spreadMethod="reflect">
      <stop
         stop-color="#626f7e"
         offset="0"
         id="stop137" />
      <stop
         stop-color="#8c95a2"
         offset=".75"
         id="stop139" />
      <stop
         stop-color="#c1c9d6"
         offset="1"
         id="stop141" />
    </linearGradient>
    <linearGradient
       id="t"
       x2="0"
       y1="83.634"
       y2="85.348"
       gradientUnits="userSpaceOnUse"
       xlink:href="#d"
       spreadMethod="reflect" />
    <linearGradient
       id="s"
       x1="24.261"
       x2="24.606"
       y1="44.011"
       y2="45.888"
       gradientTransform="matrix(2.2188 0 0 1.826 -.051304 -1.0128)"
       gradientUnits="userSpaceOnUse"
       xlink:href="#d"
       spreadMethod="reflect" />
    <linearGradient
       id="r"
       x2="0"
       y1="46.27"
       y2="-21.499"
       gradientUnits="userSpaceOnUse"
       xlink:href="#a" />
    <linearGradient
       id="q"
       x2="0"
       y1="45.727"
       y2="-28.041"
       gradientUnits="userSpaceOnUse"
       xlink:href="#a" />
    <linearGradient
       id="p"
       x2="0"
       y1="23.756"
       y2="18.82"
       gradientUnits="userSpaceOnUse"
       xlink:href="#a" />
    <linearGradient
       id="o"
       x1="38.363"
       x2="39.724"
       y1="11.17"
       y2="6.0918"
       gradientTransform="matrix(1.6375 0 0 2.4742 -.051304 -.012826)"
       gradientUnits="userSpaceOnUse"
       xlink:href="#a" />
    <linearGradient
       id="n"
       x2="0"
       y1="124.4"
       y2="81.122"
       gradientUnits="userSpaceOnUse"
       xlink:href="#a" />
    <linearGradient
       id="m"
       x2="0"
       y1="5.9674"
       y2="30.538"
       gradientUnits="userSpaceOnUse"
       xlink:href="#a" />
    <linearGradient
       id="l"
       x1="17.682"
       x2="17.425"
       y1="60.434"
       y2="62.78"
       gradientTransform="matrix(2.2188,0,0,1.826,-116.64536,-40.775176)"
       gradientUnits="userSpaceOnUse"
       xlink:href="#d"
       spreadMethod="reflect" />
    <radialGradient
       id="c"
       cx="8.0178"
       cy="231.98"
       r="7.4833"
       gradientTransform="scale(3.7417 .26726)"
       gradientUnits="userSpaceOnUse">
      <stop
         stop-color="#282828"
         offset="0"
         id="stop153" />
      <stop
         stop-color="#282828"
         stop-opacity="0"
         offset="1"
         id="stop155" />
    </radialGradient>
    <radialGradient
       id="g"
       cx="20.361"
       cy="22.546"
       r="15.157"
       gradientTransform="matrix(.43334 0 0 1.435 6.4099 -.11314)"
       gradientUnits="userSpaceOnUse"
       xlink:href="#a" />
    <radialGradient
       id="f"
       cx="20.361"
       cy="22.546"
       r="15.157"
       gradientTransform="matrix(.50007 0 0 1.6752 5.003 -5.1082)"
       gradientUnits="userSpaceOnUse"
       xlink:href="#a" />
    <radialGradient
       id="e"
       cx="20.361"
       cy="22.546"
       r="15.157"
       gradientTransform="matrix(.6214 0 0 1.8821 2.3888 -9.4094)"
       gradientUnits="userSpaceOnUse"
       xlink:href="#a" />
    <radialGradient
       id="k"
       cx="21.595"
       cy="8.9814"
       r="6.0679"
       gradientTransform="matrix(2.3666 0 0 1.7265 -.40436 -.012826)"
       gradientUnits="userSpaceOnUse"
       xlink:href="#b" />
    <radialGradient
       id="j"
       cx="21.595"
       cy="8.9814"
       r="6.0679"
       gradientTransform="matrix(-2.3666 0 0 1.7265 129.12 -.11293)"
       gradientUnits="userSpaceOnUse"
       xlink:href="#b" />
    <radialGradient
       id="i"
       cx="21.595"
       cy="8.9814"
       r="6.0679"
       gradientTransform="matrix(3.085 0 0 2.0529 -15.985 -3.1493)"
       gradientUnits="userSpaceOnUse"
       xlink:href="#b" />
    <radialGradient
       id="h"
       cx="21.595"
       cy="8.9814"
       r="6.0679"
       gradientTransform="matrix(-2.8463 0 0 2.0879 139.53 -3.5862)"
       gradientUnits="userSpaceOnUse"
       xlink:href="#b" />
    <filter
       inkscape:collect="always"
       style="color-interpolation-filters:sRGB"
       id="filter8006"
       x="-0.16512679"
       y="-0.16344183"
       width="1.3302536"
       height="1.3268837">
      <feGaussianBlur
         inkscape:collect="always"
         stdDeviation="2.1144949"
         id="feGaussianBlur8008" />
    </filter>
  </defs>
  <path
     d="m64.359 2c-20.072 0-36.231 16.159-36.231 36.231v40.257h10.064v-40.257c0-14.496 11.67-26.167 26.167-26.167s26.167 11.67 26.167 26.167v40.257h10.064v-40.257c0-20.072-16.159-36.231-36.231-36.231z"
     fill="#282828"
     fill-rule="evenodd"
     id="path167" />
  <path
     d="m64.359 4.6292c-18.957 0-34.218 16.307-34.218 34.909v37.528c0 14.089 8.7764 26.05 21.26 31.047-8.9449-4.0729-15.222-12.8-15.222-23.147v-47.404c0-14.225 11.67-26.621 26.167-26.621h4.0256c14.496 0 26.167 12.396 26.167 26.621v47.404c0 10.347-6.2771 19.074-15.222 23.147 12.484-4.9976 21.26-16.958 21.26-31.047v-37.528c0-18.602-15.261-34.909-34.218-34.909z"
     fill="url(#m)"
     fill-rule="evenodd"
     opacity=".65"
     id="path169" />
  <path
     d="m64.359 2.8539c-19.51 0-35.217 15.601-35.217 34.98v39.095c0 14.677 9.0325 27.137 21.881 32.344-9.206-4.2429-15.666-13.334-15.666-24.113v-49.383c0-14.819 12.011-29.082 26.93-29.082h4.1431c14.919 0 26.93 14.263 26.93 29.082v49.383c0 10.779-6.4603 19.87-15.666 24.113 12.848-5.2063 21.881-17.666 21.881-32.344v-39.095c0-19.379-15.707-34.98-35.217-34.98z"
     fill="url(#o)"
     fill-rule="evenodd"
     opacity=".5"
     id="path171" />
  <path
     d="m49.471 12.003c-5.4384 3.4052-8.4987 9.2101-7.8995 11.145 0.64564 2.085 4.4667-7.2336 15.283-10.119 8.3406-2.2253-4.9e-4 -5.6487-7.3837-1.0257z"
     fill="url(#k)"
     fill-rule="evenodd"
     opacity=".8"
     id="path173" />
  <path
     d="m79.248 11.903c5.4384 3.4052 8.4987 9.2101 7.8995 11.145-0.64564 2.085-4.4667-7.2336-15.283-10.119-8.3406-2.2253 4.9e-4 -5.6487 7.3837-1.0257z"
     fill="url(#j)"
     fill-rule="evenodd"
     opacity=".8"
     id="path175" />
  <path
     d="m64.359 6.2794c-18.957 0-34.218 12.995-34.218 31.951v38.244c0 14.358 8.7764 26.546 21.26 31.639-8.9449-4.1505-15.222-13.044-15.222-23.588v-48.308c0-14.496 11.67-26.182 26.167-26.182h4.0256c14.496 0 26.167 11.686 26.167 26.182v48.308c0 10.544-6.2771 19.437-15.222 23.588 12.484-5.0929 21.26-17.281 21.26-31.639v-38.244c0-18.957-15.261-31.951-34.218-31.951z"
     fill="url(#p)"
     fill-rule="evenodd"
     opacity=".5"
     id="path177" />
  <path
     d="m64.359 4.0389c-26.762 0-32.937 23.315-32.937 33.86 0 31.634 2.0586 31.634 2.0586 0 0-23.199 16.463-32.355 30.879-32.355s30.879 10.103 30.879 32.355c0 31.634 2.0586 31.634 2.0586 0 0-10.545-6.1758-33.86-32.937-33.86z"
     fill="url(#q)"
     fill-rule="evenodd"
     opacity=".8"
     id="path179" />
  <path
     d="m64.359 7.0913c-26.167 0-32.205 22.3-32.205 31.987 0 29.062 2.0128 29.062 2.0128 0 0-21.312 16.097-30.605 30.192-30.605s30.192 10.162 30.192 30.605c0 29.062 2.0128 29.062 2.0128 0 0-9.6873-6.0385-31.987-32.205-31.987z"
     fill="url(#r)"
     fill-rule="evenodd"
     opacity=".6"
     id="path181" />
  <path
     d="m36.98 16.488c-2.8752 5.2482 3.0271 1.9311 4.398 0.27381 3.8539-4.659 10.368-8.0363 16.085-9.1385 4.7947-0.92436 5.5258-2.7757 1.5775-3.0822-7.8721-0.61105-19.304 6.9156-22.061 11.947z"
     fill="#fff"
     fill-rule="evenodd"
     opacity=".8"
     id="path183" />
  <path
     d="m32.623 25.156c0.30478 2.5648 5.2635-5.7978 9.1677-9.7237 4.7683-4.7948 11.996-8.1508 15.473-8.5942 6.1984-0.79048 3.2564-3.828-0.62868-3.0606-14.12 2.7892-24.79 14.838-24.012 21.379z"
     fill="#fff"
     fill-rule="evenodd"
     opacity=".6"
     id="path185" />
  <path
     d="m91.58 16.452c2.8946 5.2376-3.0199 1.9423-4.3969 0.29-3.871-4.6448-10.397-7.9981-16.119-9.0792-4.7981-0.9067-6.1484-2.7521-2.2014-3.0731 7.8698-0.64003 19.942 6.8412 22.717 11.862z"
     fill="#fff"
     fill-rule="evenodd"
     opacity=".8"
     id="path187" />
  <path
     d="m95.798 24.925c-0.29533 2.5659-5.2848-5.7784-9.2035-9.6899-4.786-4.7772-12.026-8.1066-15.505-8.5372-6.2013-0.76765-3.2924-3.6952 0.61676-3.0622 14.142 2.3014 24.845 14.746 24.092 21.289z"
     fill="#fff"
     fill-rule="evenodd"
     opacity=".6"
     id="path189" />
  <path
     d="m49.032 11.138c-7.0895 4.049-11.079 10.951-10.298 13.252 0.84166 2.4791 5.8227-8.601 19.923-12.032 10.873-2.6459-6.4e-4 -6.7166-9.6253-1.2196z"
     fill="url(#i)"
     fill-rule="evenodd"
     opacity=".4"
     id="path191" />
  <path
     d="m79.54 10.945c6.5408 4.1181 10.221 11.138 9.5008 13.478-0.77652 2.5214-5.3721-8.7479-18.381-12.238-10.031-2.6911 5.9e-4 -6.8312 8.8804-1.2405z"
     fill="url(#h)"
     fill-rule="evenodd"
     opacity=".4"
     id="path193" />
  <path
     transform="matrix(2.0128 0 0 2.0128 3.9744 -.012826)"
     d="m58 62a28 2 0 1 1 -56 0 28 2 0 1 1 56 0z"
     fill="url(#c)"
     fill-rule="evenodd"
     opacity=".4"
     id="path195" />
  <path
     transform="matrix(2.0128 0 0 2.516 3.9744 -34.231)"
     d="m58 62a28 2 0 1 1 -56 0 28 2 0 1 1 56 0z"
     fill="url(#c)"
     fill-rule="evenodd"
     opacity=".4"
     id="path197" />
  <path
     transform="matrix(2.0128 0 0 2.0128 3.9744 -2.0256)"
     d="m58 62a28 2 0 1 1 -56 0 28 2 0 1 1 56 0z"
     fill="url(#c)"
     fill-rule="evenodd"
     opacity=".4"
     id="path199" />
  <path
     d="m24.60261,57.35913h79.51304a.5,.5 0 0,1 .5.5v65.25911a.5,.5 0 0,1 -.5.5h-79.51304a.5,.5 0 0,1 -.5-.5v-65.25911a.5,.5 0 0,1 .5-.5"
     fill="url(#u)"
     fill-rule="evenodd"
     id="path201" />
  <path
     d="m24.60261,57.35913h79.51304a.5,.5 0 0,1 .5.5v65.25911a.5,.5 0 0,1 -.5.5h-79.51304a.5,.5 0 0,1 -.5-.5v-65.25911a.5,.5 0 0,1 .5-.5"
     fill="url(#t)"
     fill-rule="evenodd"
     opacity=".03"
     id="path203" />
  <path
     d="m24.60261,57.35913h79.51304a.5,.5 0 0,1 .5.5v65.25911a.5,.5 0 0,1 -.5.5h-79.51304a.5,.5 0 0,1 -.5-.5v-65.25911a.5,.5 0 0,1 .5-.5"
     fill="url(#s)"
     fill-rule="evenodd"
     opacity=".03"
     id="path205" />
  <path
     d="m26.619 57.359c1.8101 2.1216 18.145 3.7862 38.655 3.7862 20.229 0 36.293-1.6472 38.484-3.7271-0.03083-0.00322-0.02551-0.05916-0.05719-0.05916h-77.082z"
     fill="#fff"
     fill-rule="evenodd"
     opacity=".5"
     id="path209" />
  <g
     transform="matrix(1.7195 0 0 1.9816 4.4209 1.4876)"
     fill-rule="evenodd"
     id="g217">
    <path
       d="m13.971 30.767c-0.43954 2.6295-0.93088 19.309 0.69644 22.88 1.5919 3.4933 1.3929-16.667 5.273-19.84 3.9212-3.2069-5.5549-5.52-5.9695-3.04z"
       fill="url(#g)"
       opacity=".40278"
       id="path211" />
    <path
       d="m13.729 30.942c-0.50723 3.0697-1.0742 22.541 0.80369 26.71 1.837 4.0782 1.6074-19.457 6.0851-23.161 4.525-3.7437-6.4104-6.4441-6.8888-3.5489z"
       fill="url(#f)"
       opacity=".3"
       id="path213" />
    <path
       d="m13.232 31.092c-0.6303 3.4488-1.3349 25.325 0.99868 30.009 2.2827 4.5818 1.9974-21.86 7.5614-26.022 5.6229-4.206-7.9657-7.2399-8.5601-3.9872z"
       fill="url(#e)"
       opacity=".2"
       id="path215" />
  </g>
  <g
     transform="matrix(-1.7195 0 0 1.9816 124.3 1.4876)"
     fill-rule="evenodd"
     id="g225">
    <path
       d="m13.971 30.767c-0.43954 2.6295-0.93088 19.309 0.69644 22.88 1.5919 3.4933 1.3929-16.667 5.273-19.84 3.9212-3.2069-5.5549-5.52-5.9695-3.04z"
       fill="url(#g)"
       opacity=".40278"
       id="path219" />
    <path
       d="m13.729 30.942c-0.50723 3.0697-1.0742 22.541 0.80369 26.71 1.837 4.0782 1.6074-19.457 6.0851-23.161 4.525-3.7437-6.4104-6.4441-6.8888-3.5489z"
       fill="url(#f)"
       opacity=".3"
       id="path221" />
    <path
       d="m13.232 31.092c-0.6303 3.4488-1.3349 25.325 0.99868 30.009 2.2827 4.5818 1.9974-21.86 7.5614-26.022 5.6229-4.206-7.9657-7.2399-8.5601-3.9872z"
       fill="url(#e)"
       opacity=".2"
       id="path223" />
  </g>
  <path
     d="m25.647 123.62c1.8101-2.1216 18.145-3.7862 38.655-3.7862 20.229 0 36.293 1.6472 38.484 3.7271-0.03083 0.00322-0.0255 0.05916-0.05718 0.05916h-77.082z"
     fill-rule="evenodd"
     opacity=".5"
     id="path229" />
  <path
     d="m 43.225493,91.537035 c 0,0.280248 0.0017,0.560497 0.0019,0.840746 -0.194689,0.213905 -0.403486,0.417993 -0.632058,0.607017 -3.4e-5,-0.337648 0,-0.674639 -0.0017,-1.010925 -0.0031,-1.330161 -0.0059,-2.660383 -0.0089,-3.990342 0,-0.393295 -0.0019,-0.786667 -0.0025,-1.180007 0.228373,0.20261 0.437637,0.419693 0.633697,0.645817 0,0.03246 0,0.06493 0,0.09737 0.0028,1.32999 0.0059,2.660074 0.0089,3.990346 z"
     fill="none"
     id="path573"
     style="stroke-width:0.0177507" />
  <path
     d="m 43.926478,88.302461 c 0.325856,0.467785 0.618702,0.951537 0.908068,1.420201 0.0449,0.07264 0.08965,0.146178 0.134412,0.219537 -0.324286,0.548956 -0.652835,1.118341 -1.035142,1.658127 -0.0025,-1.099327 -0.0048,-2.198596 -0.0073,-3.297895 z"
     fill="none"
     id="path577"
     style="stroke-width:0.0177507" />
  <path
     id="path741"
     style="stroke-width:0.0224063"
     d="m 32.627171,58.888024 c 0.02398,0.02095 0.04346,0.0431 0.06689,0.06431 0.008,-0.0068 0.01582,-0.01329 0.02362,-0.01989 -0.03042,-0.01476 -0.05991,-0.03028 -0.09052,-0.04442 z m 9.406214,7.678946 c 0.163539,0.04691 0.311385,0.09375 0.45264,0.139703 -0.04543,-0.03538 -0.09113,-0.07071 -0.137409,-0.104733 -0.02538,-0.0025 -0.04527,-0.0068 -0.07147,-0.0089 -0.0814,-0.0067 -0.162567,-0.01695 -0.243762,-0.02603 z m 3.235553,4.077138 c -0.0091,0.0017 -0.01424,0.0019 -0.02509,0.0044 -0.01563,0.01926 -0.032,0.04002 -0.04735,0.0594 0.02234,-0.01175 0.0435,-0.02631 0.06494,-0.03948 0.0019,-0.0087 0.0054,-0.01559 0.0076,-0.02426 z m 6.155805,4.005383 c -0.05016,0.05613 -0.09843,0.113215 -0.138372,0.175898 -0.01129,0.01773 -0.01027,0.01795 -0.01863,0.03119 0.231053,0.04401 0.462779,0.09949 0.695558,0.177579 0.02371,0.008 0.04706,0.01436 0.07081,0.02274 0.07763,0.05696 0.153358,0.116932 0.228551,0.17656 0.0031,0.0024 0.0062,0.0041 0.0085,0.007 0.118383,0.09812 0.226975,0.193574 0.327252,0.286909 0.214604,0.199767 0.391867,0.391645 0.552,0.589385 0.0247,0.03051 0.04946,0.06026 0.07335,0.09117 0.05425,0.06984 0.105732,0.141921 0.155471,0.212888 0.08889,0.126853 0.1713,0.254794 0.246253,0.384802 0.150937,0.261764 0.274236,0.529802 0.375732,0.800251 0.05108,0.137384 0.09657,0.274331 0.137075,0.412769 0.05136,0.175239 0.09629,0.351123 0.132165,0.527017 0.07414,0.363042 0.117683,0.726888 0.141537,1.083288 0.0126,0.18663 0.0177,0.371024 0.02086,0.553224 0.0038,0.221164 0.0036,0.437779 -0.0014,0.649498 8.1e-5,0.01361 -0.0016,0.02767 -0.002,0.04138 -0.01699,0.644591 -0.06788,1.2777 -0.125765,1.908952 -0.0047,0.05069 -0.01034,0.101764 -0.01503,0.15248 -0.658525,0.202224 -1.318278,0.40169 -2.001157,0.559767 -1.396509,0.323062 -3.074005,0.552643 -4.703752,-0.283622 -0.364729,-0.18716 -0.716658,-0.416469 -1.039672,-0.68458 -0.03111,-0.02581 -0.06135,-0.05311 -0.09187,-0.07961 -0.07249,-0.06294 -0.145857,-0.125508 -0.216223,-0.191457 -0.108438,-0.186318 -0.202014,-0.374957 -0.284905,-0.565563 -0.01057,0.01843 -0.01923,0.03086 -0.0266,0.02997 -0.01891,0.03602 -0.04415,0.07495 -0.102787,0.137225 0.501713,0.673076 1.042682,1.35574 1.702092,1.903088 0.193385,0.160516 0.395326,0.309046 0.608778,0.442772 1.57745,0.988949 3.246725,0.924745 4.670878,0.641815 0.459703,-0.09133 0.906243,-0.203714 1.348233,-0.32743 -0.03153,0.464313 -0.05074,0.931716 -0.04759,1.407192 0.01001,1.473208 0.280877,3.145878 1.548914,4.518922 0.171506,0.185752 0.355875,0.358489 0.549277,0.519015 0.431475,0.358148 0.910341,0.649618 1.399096,0.917444 -0.560202,0.332173 -1.112638,0.68967 -1.593859,1.133389 -0.184784,0.170373 -0.358511,0.351566 -0.519383,0.545389 -1.189531,1.432187 -1.347276,3.095215 -1.25603,4.544471 0.02949,0.467685 0.08227,0.926474 0.146123,1.381052 -0.455992,-0.0929 -0.917977,-0.175657 -1.389637,-0.235626 -1.461334,-0.185763 -3.155621,-0.139747 -4.684813,0.934836 -0.206863,0.14533 -0.400144,0.30473 -0.584878,0.47507 -0.669489,0.61731 -1.201444,1.3756 -1.685925,2.11122 0.04898,0.0571 0.09971,0.11387 0.156528,0.16178 0.01608,0.0135 0.01565,0.0129 0.02767,0.0229 0.07429,-0.22317 0.160269,-0.44652 0.268569,-0.66687 0.01108,-0.0224 0.02136,-0.0454 0.03283,-0.0679 0.06676,-0.0694 0.135514,-0.13516 0.204593,-0.20177 0.0029,-0.003 0.0059,-0.006 0.009,-0.009 0.112974,-0.10428 0.220314,-0.19884 0.326134,-0.28584 0.226485,-0.18619 0.440681,-0.33773 0.657926,-0.47019 0.03353,-0.0204 0.0666,-0.039 0.10041,-0.0585 0.07643,-0.0445 0.154442,-0.0859 0.231383,-0.12582 0.13753,-0.0713 0.2766,-0.13523 0.415404,-0.19226 0.279482,-0.11488 0.560304,-0.20312 0.84183,-0.26784 0.142951,-0.0324 0.285219,-0.0599 0.427817,-0.0816 0.180508,-0.0276 0.360591,-0.0481 0.539642,-0.0608 0.369711,-0.0249 0.734816,-0.0188 1.091228,0.005 0.186654,0.0123 0.37105,0.0288 0.552057,0.0499 0.219709,0.0256 0.434978,0.0571 0.644148,0.0902 0.0135,0.002 0.02822,0.004 0.04176,0.006 0.636637,0.10238 1.255955,0.23707 1.87394,0.37823 0.04962,0.0114 0.100781,0.0235 0.150426,0.0348 0.11303,0.67954 0.222493,1.36034 0.288534,2.05816 0.134847,1.42705 0.139905,3.11884 -0.905279,4.62317 -0.233914,0.33666 -0.508755,0.65778 -0.817366,0.94235 -0.0297,0.0274 -0.0601,0.0544 -0.09043,0.0812 -0.07202,0.0635 -0.143023,0.12633 -0.217727,0.18732 -0.199061,0.0828 -0.400578,0.14894 -0.600499,0.2058 0.01685,0.013 0.03044,0.0255 0.02859,0.0327 0.03319,0.0235 0.06531,0.0538 0.119249,0.12018 0.733714,-0.40793 1.482834,-0.85259 2.112862,-1.43351 0.184765,-0.17037 0.36027,-0.3537 0.521144,-0.54752 1.189579,-1.43223 1.34761,-3.09342 1.256213,-4.54252 -0.0295,-0.46776 -0.08218,-0.92655 -0.146122,-1.38105 0.456024,0.0929 0.917768,0.17368 1.389453,0.23368 1.461505,0.18558 3.153852,0.14186 4.683051,-0.93272 0.206876,-0.14533 0.401859,-0.30681 0.58664,-0.47719 0.713621,-0.658005 1.276665,-1.475837 1.786035,-2.256037 0.134037,-0.205284 0.246545,-0.413786 0.349177,-0.623481 0.114014,0.211536 0.239256,0.420736 0.384482,0.62286 0.436191,0.607347 0.914631,1.22733 1.448599,1.774008 0.156957,0.160906 0.322782,0.31322 0.496367,0.45731 0.508482,0.42206 1.08106,0.76367 1.675145,0.97377 1.700887,0.60165 3.329012,0.25215 4.741208,-0.12993 0.07696,-0.0209 0.154554,-0.0435 0.231241,-0.065 -0.05712,0.82785 -0.07527,1.66886 0.02373,2.53634 0.160786,1.40783 0.748144,2.83394 2.06481,3.93659 0.239256,0.19862 0.595854,0.34017 0.857163,0.4762 0.140055,0.0728 0.282013,0.14531 0.424065,0.21107 -1.389012,-1.20966 -1.884156,-2.84626 -1.985676,-4.36584 -0.07458,-1.11469 0.01685,-2.18304 0.118959,-3.24824 0.146089,-0.0454 0.291838,-0.091 0.438414,-0.13557 0.413106,-0.1255 0.828534,-0.24459 1.251963,-0.34972 0.19573,-0.04872 0.393891,-0.09534 0.593313,-0.136464 0.218565,-0.04505 0.439588,-0.08399 0.663756,-0.117617 0.05514,-0.0082 0.110764,-0.01729 0.166304,-0.02555 0.309091,-0.04175 0.624755,-0.06613 0.946851,-0.06979 0.15651,-0.002 0.315456,10e-4 0.473759,0.01018 0.173597,0.01032 0.348139,0.02746 0.522891,0.05264 0.291662,0.04207 0.583052,0.107046 0.874049,0.19799 0.124472,0.03887 0.249704,0.08254 0.373393,0.131491 0.137854,0.0546 0.275224,0.1149 0.411589,0.18282 0.353999,0.17633 0.701422,0.39905 1.038938,0.6768 0.01563,0.0128 0.02089,0.0138 0.02267,0.0116 l 0.0022,0.002 0.451681,-0.28592 c 0.0083,-0.005 -0.05363,-0.0874 -0.05548,-0.0889 l -0.453442,0.28805 c -0.09134,-0.12778 -0.190785,-0.25396 -0.288942,-0.37888 -0.183083,-0.23282 -0.389315,-0.559916 -0.624549,-0.755174 -1.330554,-1.094591 -2.825364,-1.395041 -4.216698,-1.275218 -0.857148,0.07392 -1.664263,0.257534 -2.452177,0.478773 0.0056,-0.08059 0.01149,-0.162098 0.0163,-0.242848 0.08859,-1.481028 0.103849,-3.170659 -0.814798,-4.743228 -0.320659,-0.549072 -0.764708,-1.050847 -1.273014,-1.472774 -0.173836,-0.14429 -0.35551,-0.27757 -0.542149,-0.40198 -0.314619,-0.209925 -0.644931,-0.401474 -0.978833,-0.580464 0.316184,-0.192532 0.627453,-0.396796 0.922656,-0.616823 0.180312,-0.13421 0.352511,-0.278583 0.518367,-0.431508 0.485826,-0.447962 0.90239,-0.969781 1.189477,-1.530723 0.82209,-1.60598 0.689516,-3.265758 0.498248,-4.716174 -0.01048,-0.07905 -0.02108,-0.159384 -0.03234,-0.238249 0.812943,0.16649 1.642305,0.296715 2.515249,0.313736 1.416706,0.0275 2.910234,-0.365889 4.177902,-1.524557 0.22861,-0.210777 0.415336,-0.546047 0.584849,-0.786989 0.09071,-0.12916 0.181252,-0.257886 0.265293,-0.389951 -1.383321,1.216163 -3.071497,1.488086 -4.591103,1.387015 -1.114726,-0.07404 -2.162242,-0.306216 -3.204464,-0.548805 -0.02561,-0.150824 -0.04939,-0.300876 -0.07408,-0.452069 -0.06952,-0.426107 -0.132636,-0.855875 -0.180629,-1.289511 -0.02225,-0.200453 -0.04275,-0.401616 -0.05711,-0.604731 -0.0157,-0.222615 -0.02474,-0.447499 -0.02835,-0.674149 -9.49e-4,-0.05579 -0.0039,-0.110268 -0.0039,-0.166382 -3.35e-4,-0.311898 0.01856,-0.629327 0.05751,-0.949065 0.01888,-0.155375 0.04144,-0.312111 0.07157,-0.467785 0.03306,-0.170722 0.07437,-0.340014 0.122527,-0.509872 0.08036,-0.283504 0.18413,-0.565383 0.312871,-0.841738 0.05506,-0.118212 0.113677,-0.236238 0.178603,-0.352337 0.07236,-0.12939 0.151072,-0.257164 0.236493,-0.383308 0.22176,-0.327462 0.487548,-0.643769 0.807643,-0.941433 0.01479,-0.01379 0.01759,-0.01903 0.01567,-0.0211 l 0.002,-1.88e-4 -0.224509,-0.486909 c -0.0041,-0.009 -0.09217,0.04256 -0.09392,0.04419 l 0.224691,0.488852 c -0.138698,0.07347 -0.276466,0.154506 -0.41331,0.235214 -0.255054,0.150561 -0.607,0.312721 -0.831751,0.519957 -1.261515,1.173497 -1.756607,2.614496 -1.822517,4.009424 -0.04086,0.85936 0.03248,1.682991 0.147181,2.4933 -0.07911,-0.01624 -0.1586,-0.03269 -0.238003,-0.04815 -1.456164,-0.284389 -3.12853,-0.522284 -4.809114,0.179507 -0.586778,0.244942 -1.14398,0.618336 -1.629636,1.066143 -0.166091,0.153145 -0.322187,0.315381 -0.470263,0.483857 -0.50325,0.57203 -0.945246,1.210318 -1.34508,1.835767 -0.06399,0.100191 -0.114724,0.204477 -0.171158,0.306513 -0.09143,-0.151831 -0.187152,-0.302656 -0.295644,-0.450763 -0.554498,-0.7569 -1.162735,-1.549854 -1.909737,-2.169904 -0.193391,-0.160535 -0.395317,-0.30905 -0.608779,-0.44277 -1.577401,-0.988914 -3.246554,-0.924615 -4.670877,-0.641816 -0.459634,0.0913 -0.908273,0.202087 -1.350363,0.325668 0.03156,-0.464288 0.05076,-0.931745 0.0476,-1.407192 -0.0098,-1.473063 -0.278918,-3.146073 -1.546971,-4.519105 -0.171501,-0.185744 -0.355739,-0.356582 -0.549094,-0.517071 -0.700714,-0.581628 -1.523293,-1.007348 -2.316721,-1.389902 z m 7.787899,8.594921 c 0.185979,-0.01636 0.374243,-0.0253 0.56434,-0.02779 0.156385,-0.002 0.313162,-0.0011 0.471631,0.0084 0.172746,0.0104 0.346795,0.03018 0.521312,0.05671 0.287679,0.04372 0.577491,0.110398 0.867006,0.206508 0.122364,0.04061 0.245869,0.0865 0.36811,0.137877 0.118399,0.04977 0.236905,0.104049 0.354941,0.164624 0.01713,0.0088 0.03264,0.01777 0.0496,0.02671 0.236995,0.124431 0.468551,0.266154 0.689529,0.425336 0.09982,0.07188 0.196953,0.146808 0.292025,0.225495 0.003,0.0023 0.0073,0.0044 0.01049,0.0068 0.0306,0.02533 0.05979,0.05145 0.08975,0.07785 0.07237,0.0629 0.14604,0.127499 0.216408,0.193402 0.0027,0.0051 0.0043,0.009 0.0072,0.01305 0.151502,0.262096 0.275347,0.530756 0.377676,0.800066 0.05209,0.137209 0.09781,0.272805 0.138833,0.410641 0.04591,0.154477 0.08276,0.30957 0.116388,0.463768 -0.02982,0.07194 -0.06484,0.142162 -0.09155,0.214638 -0.550183,1.494085 -0.40136,2.979934 -0.200741,4.334949 -1.061829,-0.225932 -2.163144,-0.388928 -3.331895,-0.277811 -0.771946,0.07319 -1.550569,0.288129 -2.311345,0.702847 -0.225839,0.123126 -0.454363,0.263273 -0.682587,0.396008 -0.01605,-0.01255 -0.03268,-0.024 -0.04858,-0.03661 -0.416926,-0.34429 -0.709977,-0.650413 -0.963242,-0.976261 -1.130977,-1.455115 -1.240309,-3.168424 -1.20552,-4.621975 0.01686,-0.710788 0.07821,-1.407495 0.142771,-2.102816 0.146326,-0.0449 0.291875,-0.08945 0.438598,-0.133629 0.431164,-0.129822 0.865172,-0.253389 1.307616,-0.362829 0.08461,-0.02095 0.167711,-0.0434 0.252999,-0.06313 0.111194,-0.02576 0.22748,-0.05137 0.342076,-0.07547 0.21717,-0.04561 0.439838,-0.08539 0.667462,-0.119926 0.180595,-0.02737 0.362835,-0.05119 0.548817,-0.06753 z m 9.917544,-0.222488 c 0.363321,-0.0314 0.722153,-0.03324 1.075778,-0.01331 0.184275,0.01041 0.36869,0.02572 0.549746,0.04618 0.231704,0.02618 0.458656,0.06036 0.68414,0.09822 0.407082,0.06831 0.804571,0.150211 1.187153,0.231206 0.255139,0.05402 0.509556,0.112448 0.763615,0.171151 0.04999,0.01153 0.100259,0.02122 0.150242,0.03289 0.05147,0.303681 0.101813,0.607562 0.146956,0.912098 0.217472,1.465225 0.448971,3.128906 -0.227481,4.778885 -0.289572,0.706343 -0.751581,1.380223 -1.355159,1.936772 -0.05465,0.05039 -0.111491,0.09904 -0.168533,0.147357 -0.01874,0.01592 -0.03721,0.0326 -0.05624,0.04847 -0.300506,-0.157802 -0.603812,-0.308739 -0.903572,-0.448283 -0.380984,-0.177156 -0.767432,-0.306353 -1.15536,-0.393115 -1.553892,-0.347007 -3.005213,-0.0019 -4.321613,0.376734 0.083,-1.082424 0.09922,-2.193407 -0.166047,-3.337061 -0.09383,-0.405016 -0.234001,-0.807156 -0.417448,-1.200445 0.0097,-0.05932 0.01682,-0.117696 0.02838,-0.177281 0.01853,-0.09546 0.03813,-0.192172 0.06106,-0.288268 0.01777,-0.07468 0.03797,-0.148678 0.05934,-0.223365 0.08026,-0.280185 0.18652,-0.560573 0.319255,-0.836456 0.01174,-0.02439 0.02228,-0.04757 0.03441,-0.07191 0.05788,-0.07572 0.09923,-0.120155 0.141602,-0.162471 0.01919,-0.01916 0.04038,-0.03562 0.05957,-0.05467 0.03424,-0.03305 0.06749,-0.06772 0.102388,-0.09991 0.07162,-0.06605 0.144755,-0.129526 0.219305,-0.191389 0.209416,-0.173824 0.429981,-0.32857 0.65811,-0.468246 0.108133,-0.06622 0.218237,-0.129859 0.329481,-0.18806 0.135877,-0.07109 0.273854,-0.135209 0.413277,-0.194013 0.142345,-0.06008 0.28534,-0.115398 0.430011,-0.162241 0.135203,-0.04384 0.270632,-0.07965 0.405249,-0.112821 0.141064,-0.0347 0.281085,-0.06475 0.421249,-0.08883 0.17809,-0.03056 0.354799,-0.05259 0.531133,-0.06782 z m -9.638384,8.496565 c 0.164452,-0.01191 0.327618,-0.01807 0.488689,-0.01869 0.201246,-7.44e-4 0.400957,0.0052 0.597914,0.01613 0.183277,0.01015 0.363526,0.02403 0.543544,0.04284 0.22926,0.02393 0.456774,0.05733 0.681645,0.09257 0.276372,0.04323 0.547164,0.09745 0.818719,0.152214 -0.774058,0.209379 -1.566853,0.381148 -2.41131,0.433709 -0.733812,0.04562 -1.516996,-0.01858 -2.301573,-0.294678 -0.02803,-0.02052 -0.05468,-0.04184 -0.08244,-0.06284 0.233048,-0.08839 0.466324,-0.162523 0.699482,-0.217118 0.142918,-0.03342 0.285761,-0.05924 0.427817,-0.0816 0.180261,-0.0283 0.359842,-0.04976 0.537518,-0.06253 z m -1.797625,0.409105 c 0.327197,0.176091 0.657013,0.348907 0.981394,0.503711 0.776532,0.370632 1.55682,0.537532 2.320896,0.561623 1.15674,0.03676 2.226225,-0.198247 3.25492,-0.495722 -0.09602,1.27793 -0.134072,2.663553 0.364924,4.030419 -0.06217,0.693646 -0.225951,1.413612 -0.581455,2.110893 -0.06674,0.06947 -0.135377,0.137145 -0.204408,0.203715 -0.396587,0.367538 -0.738823,0.615654 -1.095403,0.823429 -1.592354,0.927828 -3.305486,0.810558 -4.741566,0.583148 -0.702253,-0.11106 -1.385702,-0.264585 -2.066302,-0.42087 -0.02508,-0.150992 -0.04782,-0.300962 -0.07214,-0.452251 -0.07144,-0.44458 -0.138159,-0.892661 -0.187906,-1.345717 -0.0095,-0.08663 -0.01818,-0.171275 -0.02641,-0.258427 -0.01078,-0.11363 -0.02027,-0.231652 -0.02899,-0.348427 -0.01638,-0.221302 -0.02861,-0.447477 -0.03261,-0.67767 -0.0063,-0.36526 0.0079,-0.739897 0.05338,-1.117391 0.01877,-0.155268 0.04125,-0.310043 0.07175,-0.465841 0.03322,-0.169839 0.0752,-0.338659 0.124655,-0.508111 0.08151,-0.279332 0.187879,-0.558555 0.321568,-0.83275 0.05648,-0.115891 0.118022,-0.230771 0.18517,-0.345111 0.06505,-0.110746 0.132505,-0.220679 0.208212,-0.32963 0.01099,-0.01581 0.02357,-0.03276 0.03466,-0.04839 0.154787,-0.218381 0.326696,-0.4274 0.513799,-0.625295 0.0845,-0.0894 0.171247,-0.176361 0.261857,-0.260148 0.0027,-0.0028 0.0043,-0.0057 0.007,-0.0085 0.02916,-0.02696 0.05852,-0.05281 0.08866,-0.079 0.07195,-0.06339 0.145015,-0.126502 0.219673,-0.1875 0.0049,-0.0022 0.01027,-0.0051 0.01501,-0.0073 0.0031,-0.0013 0.0065,-0.0016 0.0096,-0.0029 z M 69.29729,91.210453 c 0.184275,-0.01429 0.370592,-0.02202 0.558875,-0.02335 0.155597,-10e-4 0.313219,0.0013 0.471815,0.01038 0.09707,0.0058 0.194264,0.01371 0.292556,0.02338 0.07638,0.0075 0.153471,0.01799 0.230334,0.02925 0.288359,0.04241 0.579651,0.109231 0.870711,0.204198 0.02573,0.0085 0.05128,0.01729 0.07701,0.02608 -0.01136,0.0049 -0.0244,0.0092 -0.03602,0.01324 -0.389822,0.158426 -0.782986,0.268812 -1.173157,0.332476 -1.242102,0.202861 -2.409656,0.05186 -3.527984,-0.172974 0.144801,-0.04082 0.282807,-0.08726 0.42961,-0.124925 0.196387,-0.05037 0.394468,-0.09847 0.594892,-0.140534 0.218937,-0.04594 0.439542,-0.08349 0.663941,-0.115666 0.180305,-0.02587 0.363151,-0.04718 0.54742,-0.06154 z m 2.58727,0.328515 c 0.02926,0.01994 0.06755,0.04132 0.09199,0.05998 0.02154,0.01651 0.04224,0.03447 0.06366,0.05088 0.0373,0.02951 0.07376,0.05737 0.110295,0.08768 0.07496,0.06224 0.147142,0.127538 0.218352,0.193217 0.200081,0.184488 0.385408,0.383581 0.554127,0.591145 0.07999,0.09834 0.155999,0.197623 0.228452,0.300163 0.08849,0.125239 0.171226,0.252286 0.248015,0.382674 0.07844,0.133109 0.153287,0.269825 0.218923,0.407002 0.06138,0.128182 0.115064,0.25552 0.165796,0.384552 0.05312,0.135206 0.09989,0.270661 0.142355,0.406385 0.05392,0.172459 0.100703,0.345752 0.139206,0.518506 0.07932,0.355947 0.128262,0.711175 0.155445,1.064318 0.01416,0.184021 0.02275,0.368564 0.02651,0.550729 0.0048,0.233133 0.0022,0.462547 -0.0054,0.691065 -0.01366,0.412544 -0.04285,0.817514 -0.07234,1.207459 -0.01968,0.260052 -0.04513,0.519926 -0.0696,0.779527 -0.0048,0.05108 -0.0082,0.101208 -0.01308,0.152304 -0.294168,0.09125 -0.587179,0.182625 -0.88303,0.267798 -1.423396,0.410018 -3.042647,0.860568 -4.767816,0.409058 -0.738527,-0.193259 -1.46607,-0.562512 -2.097808,-1.086869 -0.05721,-0.0475 -0.115333,-0.09655 -0.170799,-0.146704 -0.04452,-0.04006 -0.08958,-0.08159 -0.133228,-0.122784 -0.0064,-0.01062 -0.01121,-0.02086 -0.01673,-0.03177 -0.208765,-0.365336 -0.369473,-0.74131 -0.484361,-1.119576 -0.107815,-0.354791 -0.179914,-0.707012 -0.233221,-1.056973 0.07721,-0.252893 0.142837,-0.506469 0.18513,-0.761011 0.190004,-1.141621 0.09832,-2.235033 -0.05998,-3.29411 1.359112,0.287012 2.851676,0.532364 4.401053,0.09052 0.386798,-0.110386 0.770108,-0.260024 1.143536,-0.459159 0.303879,-0.161972 0.611099,-0.334748 0.914521,-0.516002 z m -30.6401,16.800892 c 4.76e-4,0.009 0.0015,0.0161 0.0026,0.0272 0.01701,0.018 0.03501,0.0361 0.05217,0.0539 -0.0087,-0.0238 -0.01991,-0.0467 -0.03013,-0.0698 -0.0082,-0.003 -0.0145,-0.008 -0.02267,-0.0116 z m -4.27161,2.23574 c -0.04108,0.0403 -0.08208,0.08 -0.121941,0.12137 -0.0059,0.0249 -0.01135,0.0446 -0.01691,0.0703 -0.01745,0.0798 -0.0381,0.15963 -0.05787,0.23891 0.06821,-0.15587 0.132412,-0.29665 0.196719,-0.43055 z m -9.000027,8.65012 c -0.01866,0.0282 -0.03876,0.0554 -0.05682,0.0838 0.02396,-0.0211 0.04888,-0.0376 0.07301,-0.0579 -0.0055,-0.009 -0.01067,-0.0173 -0.01618,-0.0259 z" />
  <ellipse
     style="opacity:0.84;fill:#f7f4f4;fill-opacity:1;fill-rule:evenodd;stroke-width:0.827;stroke-miterlimit:4;stroke-dasharray:none;filter:url(#filter8006)"
     id="path6115"
     cx="63.524754"
     cy="90.613869"
     rx="15.366336"
     ry="15.524752" />
  <path
     d="m -64.05604,49.418215 c 0.54362,-0.97485 1.097246,-1.948792 1.701249,-2.8954 0.0041,1.916597 0.0081,3.833328 0.01239,5.749988 -0.598203,-0.939098 -1.156645,-1.898963 -1.713491,-2.854683 z"
     fill="none"
     id="path561-9"
     style="stroke-width:0.0375658" />
  <path
     d="m -64.05604,49.418215 c 0.54362,-0.97485 1.097246,-1.948792 1.701249,-2.8954 0.0041,1.916597 0.0081,3.833328 0.01239,5.749988 -0.598203,-0.939098 -1.156645,-1.898963 -1.713491,-2.854683 z"
     fill="none"
     id="path17438-7"
     style="stroke-width:0.0375658" />
</svg>
